<?xml version="1.0" encoding="UTF-8"?>
<svg id="_图层_2" data-name="图层 2" xmlns="http://www.w3.org/2000/svg" viewBox="0 0 64.06 64.08">
  <defs>
    <style>
      .cls-1 {
        fill: #fff;
      }

      .cls-2, .cls-3 {
        fill: #ff8000;
      }

      .cls-3 {
        isolation: isolate;
        opacity: .75;
      }
    </style>
  </defs>
  <g id="_图层_1-2" data-name="图层 1">
    <path class="cls-3" d="M13.54,0C6.04,0,0,6.04,0,13.54V50.53c0,7.5,6.04,13.54,13.54,13.54H50.52c7.5,0,13.54-6.04,13.54-13.54V13.54c0-7.5-6.04-13.54-13.54-13.54H13.54Zm18.49,13.35c10.34,0,18.69,8.35,18.69,18.69s-8.35,18.69-18.69,18.69-18.69-8.35-18.69-18.69S21.7,13.35,32.03,13.35Z"/>
    <path class="cls-1" d="M60.81,32.04c0,15.9-12.88,28.78-28.77,28.78S3.26,47.93,3.26,32.04,16.14,3.26,32.03,3.26c15.89,0,28.77,12.88,28.77,28.78Z"/>
    <g>
      <path class="cls-2" d="M38.37,30.88v13.64l10.23-6.82-10.23-6.82Zm2.73,5.1l2.58,1.72-2.58,1.72v-3.44Z"/>
      <rect class="cls-2" x="15.87" y="41.79" width="19.77" height="2.73"/>
      <rect class="cls-2" x="15.87" y="36.33" width="19.77" height="2.73"/>
      <rect class="cls-2" x="15.87" y="30.88" width="19.77" height="2.73"/>
      <rect class="cls-2" x="15.87" y="25.42" width="32.73" height="2.73"/>
      <rect class="cls-2" x="15.87" y="19.97" width="32.73" height="2.73"/>
    </g>
  </g>
</svg>