<?xml version="1.0" encoding="UTF-8"?>
<svg id="_图层_2" data-name="图层 2" xmlns="http://www.w3.org/2000/svg" viewBox="0 0 224.7 64.08">
  <defs>
    <style>
      .cls-1 {
        fill: #fff;
      }

      .cls-2, .cls-3 {
        fill: #ff8000;
      }

      .cls-3 {
        isolation: isolate;
        opacity: .75;
      }
    </style>
  </defs>
  <g id="_图层_1-2" data-name="图层 1">
    <path class="cls-3" d="M13.54,0C6.04,0,0,6.04,0,13.54V50.53c0,7.5,6.04,13.54,13.54,13.54H50.52c7.5,0,13.54-6.04,13.54-13.54V13.54c0-7.5-6.04-13.54-13.54-13.54H13.54Zm18.49,13.35c10.34,0,18.69,8.35,18.69,18.69s-8.35,18.69-18.69,18.69-18.69-8.35-18.69-18.69S21.7,13.35,32.03,13.35Z"/>
    <g>
      <path class="cls-2" d="M92.28,22.52h0l-1.11,2.05c-1.81-1.13-3.8-1.7-5.97-1.7h0c-1.62,0-2.82,.36-3.61,1.08-.79,.71-1.18,1.56-1.18,2.53h0c0,.95,.31,1.72,.94,2.32,.63,.61,1.63,1.05,3.02,1.32h0l3.3,.7c3.97,.83,5.96,3.05,5.96,6.66h0c0,1.89-.74,3.48-2.23,4.75-1.49,1.27-3.63,1.91-6.41,1.91h0c-1.59,0-2.96-.14-4.11-.41-1.15-.28-2.37-.76-3.66-1.43h0l.9-2.36c2.23,1.27,4.5,1.91,6.81,1.91h0c2.13,0,3.68-.4,4.66-1.2,.99-.79,1.48-1.84,1.48-3.14h0c0-1.27-.35-2.24-1.04-2.93-.69-.68-1.86-1.19-3.51-1.54h0l-3.64-.77c-1.48-.3-2.67-.93-3.58-1.9-.9-.97-1.35-2.22-1.35-3.75h0c0-1.76,.64-3.19,1.93-4.29,1.28-1.1,3.05-1.65,5.32-1.65h0c2.73,0,5.09,.61,7.08,1.84Z"/>
      <path class="cls-2" d="M112.55,28.47c1.83,1.66,2.74,3.84,2.74,6.55s-.91,4.89-2.74,6.54c-1.83,1.65-4.12,2.48-6.87,2.48s-5.04-.83-6.87-2.48c-1.83-1.65-2.75-3.83-2.75-6.54s.92-4.89,2.75-6.55c1.83-1.65,4.12-2.48,6.87-2.48,2.75,0,5.04,.83,6.87,2.48Zm-11.99,1.51c-1.31,1.27-1.96,2.95-1.96,5.04s.65,3.76,1.96,5.03c1.31,1.27,3.01,1.91,5.12,1.91s3.8-.64,5.11-1.91c1.31-1.27,1.96-2.95,1.96-5.03s-.65-3.77-1.96-5.04c-1.31-1.27-3.01-1.9-5.11-1.9s-3.81,.63-5.12,1.9Z"/>
      <path class="cls-2" d="M118.76,43.69V26.34h2.11l.21,3.19c.77-1.2,1.75-2.09,2.95-2.67,1.21-.58,2.44-.87,3.71-.87h0c2.13,0,3.81,.76,5.04,2.29h0l-1.74,1.6c-.95-1.11-2.18-1.67-3.71-1.67h0c-2.41,0-4.43,1.25-6.07,3.75h0v11.73h-2.5Z"/>
      <path class="cls-2" d="M136.63,29.5h0l-.66-2.08c2.22-.95,4.59-1.43,7.11-1.43,2.52,0,4.37,.48,5.55,1.43,1.18,.95,1.77,2.45,1.77,4.51h0v7.53c0,.93,.16,1.56,.49,1.91,.33,.35,.94,.53,1.84,.55h0v1.77c-.63,.23-1.26,.35-1.91,.35h0c-.72,0-1.27-.23-1.65-.68-.38-.45-.62-1.22-.71-2.31h0c-1.85,1.99-4.42,2.99-7.7,2.99h0c-2.01,0-3.52-.45-4.51-1.36-1-.9-1.5-2.17-1.5-3.81h0c0-1.53,.5-2.87,1.5-4.03h0c2.89-.88,6.78-1.39,11.69-1.52h0v-1.29c0-1.37-.37-2.35-1.11-2.95-.74-.6-2.05-.9-3.92-.9h0c-2.08,0-4.17,.44-6.28,1.32Zm11.31,9.68h0v-4.03c-3.91,.07-7.15,.44-9.72,1.11h0c-.6,.7-.9,1.5-.9,2.4h0c0,2.13,1.23,3.19,3.68,3.19h0c2.82,0,5.13-.89,6.94-2.67Z"/>
      <path class="cls-2" d="M154.01,35.4v-2.22h10v2.22h-10Z"/>
      <path class="cls-2" d="M171.99,23.36h-6.94v-2.22h16.48v2.22h-6.94v20.33h-2.6V23.36Z"/>
      <path class="cls-2" d="M199.92,43.69h-14.5v-2.32l7.91-7.67c1.32-1.3,2.3-2.46,2.93-3.47,.63-1.02,.95-2.06,.95-3.13h0c0-1.34-.44-2.37-1.33-3.08-.89-.72-2.07-1.08-3.52-1.08h0c-2.27,0-4.3,.68-6.11,2.05h0l-1.25-2.05c1.15-.83,2.31-1.42,3.47-1.75,1.15-.34,2.52-.51,4.09-.51h0c2.23,0,4,.57,5.33,1.7,1.33,1.14,2,2.7,2,4.69h0c0,2.55-1.42,5.16-4.27,7.84h0l-6.49,6.18v.21h10.79v2.39Z"/>
      <path class="cls-2" d="M224.7,21.14l-9.16,22.55h-3.58l-9.26-22.55h2.88l7.98,20.05h.59l7.84-20.05h2.71Z"/>
    </g>
    <path class="cls-1" d="M60.81,32.04c0,15.9-12.88,28.78-28.77,28.78S3.26,47.93,3.26,32.04,16.14,3.26,32.03,3.26c15.89,0,28.77,12.88,28.77,28.78Z"/>
    <g>
      <path class="cls-2" d="M38.37,30.88v13.64l10.23-6.82-10.23-6.82Zm2.73,5.1l2.58,1.72-2.58,1.72v-3.44Z"/>
      <rect class="cls-2" x="15.87" y="41.79" width="19.77" height="2.73"/>
      <rect class="cls-2" x="15.87" y="36.33" width="19.77" height="2.73"/>
      <rect class="cls-2" x="15.87" y="30.88" width="19.77" height="2.73"/>
      <rect class="cls-2" x="15.87" y="25.42" width="32.73" height="2.73"/>
      <rect class="cls-2" x="15.87" y="19.97" width="32.73" height="2.73"/>
    </g>
  </g>
</svg>